<svg width="22" height="24" viewBox="0 0 22 24" fill="none" xmlns="http://www.w3.org/2000/svg">
<path d="M19.0834 13.7054C19.1597 13.6277 19.2507 13.5659 19.3512 13.5238C19.4516 13.4816 19.5595 13.4599 19.6684 13.4599C19.7773 13.4599 19.8852 13.4816 19.9856 13.5238C20.0861 13.5659 20.1771 13.6277 20.2534 13.7054C20.4087 13.8634 20.4957 14.0761 20.4957 14.2976C20.4957 14.5192 20.4087 14.7319 20.2534 14.8898L13.0162 22.2002C11.3842 23.4674 9.74259 24.0758 8.1082 23.993C6.049 23.8874 4.44579 23.1026 3.08499 21.815C1.69779 20.5022 0.800194 18.629 0.800194 16.3586C0.800194 14.6162 1.30659 13.0826 2.37579 11.7218L12.5794 1.20984C13.6114 0.363844 14.7586 -0.0453548 15.9874 0.00384521C17.5474 0.0686455 18.7078 0.572645 19.5706 1.42584C20.581 2.42304 21.2002 3.64824 21.2002 5.29584C21.2002 6.60624 20.7478 7.81584 19.8142 8.95104L10.8334 18.1202C10.1134 18.8882 9.409 19.3442 8.689 19.4546C8.20843 19.5303 7.71665 19.4873 7.2565 19.3294C6.79636 19.1715 6.38181 18.9035 6.04899 18.5486C5.41059 17.873 5.137 17.0306 5.233 16.0718C5.299 15.4178 5.5666 14.8154 6.05859 14.2382L14.3146 5.78064C14.3904 5.7026 14.481 5.64043 14.581 5.59775C14.6811 5.55508 14.7887 5.53275 14.8975 5.53209C15.0063 5.53141 15.1141 5.55241 15.2147 5.59385C15.3153 5.63529 15.4066 5.69634 15.4834 5.77344C15.6397 5.93049 15.728 6.14263 15.7293 6.36417C15.7307 6.58571 15.6449 6.79891 15.4906 6.95784L7.2742 15.3722C7.03419 15.6542 6.90819 15.9386 6.87819 16.241C6.83019 16.721 6.94539 17.075 7.24419 17.3906C7.3951 17.5523 7.58362 17.6741 7.79298 17.7453C8.00233 17.8165 8.22604 17.8348 8.44419 17.7986C8.7358 17.7542 9.14379 17.489 9.6466 16.9538L18.5902 7.82544C19.2346 7.03944 19.5466 6.20544 19.5466 5.29464C19.5466 4.14984 19.1326 3.33025 18.4162 2.62345C17.8462 2.05945 17.0722 1.72344 15.9202 1.67544C15.1042 1.64305 14.3482 1.91304 13.6906 2.44584L3.61419 12.8258C2.84019 13.8182 2.45379 14.9858 2.45379 16.3574C2.45379 18.1358 3.14619 19.5782 4.21539 20.591C5.30739 21.6254 6.5554 22.235 8.191 22.319C9.4006 22.3814 10.669 21.911 11.9314 20.9438L19.0834 13.7042V13.7054Z" fill="#82878D"/>
</svg>
