<svg width="32" height="32" viewBox="0 0 32 32" fill="none" xmlns="http://www.w3.org/2000/svg">
<path d="M9 9C8.73478 9 8.48043 9.10536 8.29289 9.29289C8.10536 9.48043 8 9.73478 8 10C8 10.2652 8.10536 10.5196 8.29289 10.7071C8.48043 10.8946 8.73478 11 9 11H23C23.2652 11 23.5196 10.8946 23.7071 10.7071C23.8946 10.5196 24 10.2652 24 10C24 9.73478 23.8946 9.48043 23.7071 9.29289C23.5196 9.10536 23.2652 9 23 9H9ZM8.33333 4C7.18406 4 6.08186 4.45655 5.2692 5.2692C4.45655 6.08186 4 7.18406 4 8.33333V23.6667C4 24.8159 4.45655 25.9181 5.2692 26.7308C6.08186 27.5435 7.18406 28 8.33333 28H23.6667C24.8159 28 25.9181 27.5435 26.7308 26.7308C27.5435 25.9181 28 24.8159 28 23.6667V8.33333C28 7.18406 27.5435 6.08186 26.7308 5.2692C25.9181 4.45655 24.8159 4 23.6667 4H8.33333ZM6 8.33333C6 7.04533 7.04533 6 8.33333 6H23.6667C24.9547 6 26 7.04533 26 8.33333V23.6667C26 24.2855 25.7542 24.879 25.3166 25.3166C24.879 25.7542 24.2855 26 23.6667 26H8.33333C7.71449 26 7.121 25.7542 6.68342 25.3166C6.24583 24.879 6 24.2855 6 23.6667V8.33333Z" fill="#C0C0C0"/>
</svg>
