<svg width="32" height="32" viewBox="0 0 32 32" fill="none" xmlns="http://www.w3.org/2000/svg">
<path d="M29.6707 11.28C29.1397 11.5505 28.5746 11.7478 27.9907 11.8667C28.2856 12.771 28.4385 13.7155 28.444 14.6667C28.4237 16.0312 28.1201 17.3766 27.5524 18.6176C26.9847 19.8585 26.1654 20.968 25.1462 21.8756C25.0569 21.9584 24.9855 22.0588 24.9366 22.1704C24.8876 22.2821 24.8622 22.4026 24.8618 22.5245V27.2711L20.9685 24.7911C20.8598 24.7225 20.7377 24.6782 20.6103 24.6613C20.4829 24.6444 20.3534 24.6554 20.2307 24.6933C18.8607 25.1188 17.4341 25.3346 15.9996 25.3333C9.13734 25.3333 3.55512 20.5511 3.55512 14.6667C3.55512 8.78223 9.13734 4.00001 15.9996 4.00001C17.3689 3.99984 18.7311 4.19743 20.044 4.58667C20.0995 3.99653 20.234 3.41652 20.444 2.86223C19 2.44104 17.5038 2.22558 15.9996 2.22223C8.15956 2.22223 1.77734 7.80445 1.77734 14.6667C1.77734 21.5289 8.15956 27.1111 15.9996 27.1111C17.4664 27.1094 18.926 26.906 20.3373 26.5067L25.2529 29.6356C25.3871 29.7217 25.542 29.7701 25.7013 29.7757C25.8606 29.7814 26.0186 29.7441 26.1585 29.6678C26.2985 29.5914 26.4154 29.4788 26.4969 29.3418C26.5784 29.2048 26.6215 29.0483 26.6218 28.8889V22.9067C27.734 21.8397 28.6215 20.5611 29.2322 19.1459C29.8428 17.7308 30.1641 16.2079 30.1773 14.6667C30.1871 13.5182 30.0161 12.3753 29.6707 11.28Z" fill="#C0C0C0"/>
<path d="M26.6671 9.7778C29.1217 9.7778 31.1115 7.78796 31.1115 5.33336C31.1115 2.87876 29.1217 0.888916 26.6671 0.888916C24.2125 0.888916 22.2227 2.87876 22.2227 5.33336C22.2227 7.78796 24.2125 9.7778 26.6671 9.7778Z" fill="#FF0000" fill-opacity="0.6"/>
</svg>
