<svg width="32" height="30" viewBox="0 0 32 30" fill="none" xmlns="http://www.w3.org/2000/svg">
<path d="M25.9504 2.1088C26.9952 2.928 27.7152 4.2512 28.0096 5.6368C28.0452 5.64809 28.08 5.66199 28.1136 5.6784L31.3856 7.192C31.5685 7.27598 31.7235 7.41055 31.8324 7.57981C31.9413 7.74907 31.9994 7.94595 32 8.1472V27.9344C31.9988 28.0988 31.9596 28.2606 31.8854 28.4073C31.8111 28.554 31.7039 28.6814 31.5722 28.7797C31.4404 28.878 31.2877 28.9444 31.1259 28.9737C30.9642 29.0031 30.7979 28.9945 30.64 28.9488L21.5696 26.3888L10.7856 29.3616C10.591 29.415 10.3854 29.4128 10.192 29.3552L0.7584 26.5472C0.540353 26.4832 0.348784 26.3505 0.212153 26.1689C0.0755216 25.9873 0.00111946 25.7665 0 25.5392L0 5.3968C0 4.6928 0.6848 4.1872 1.368 4.3856L10.4912 7.0432L15.128 5.624C15.1918 5.60516 15.2571 5.59178 15.3232 5.584C15.5024 4.5344 16.0032 3.5264 16.8432 2.544C17.84 1.376 19.5888 0.691202 21.2928 0.609602C23.0608 0.524802 24.4112 0.902402 25.9488 2.1072L25.9504 2.1088ZM2.1328 6.8096V24.7536L9.9248 27.072V9.0768L2.1328 6.8096ZM15.2672 7.792L12.0576 8.7728V26.8192L20.1616 24.5888V19.3168C20.1616 18.7344 20.64 18.2624 21.2288 18.2624C21.8176 18.2624 22.2944 18.7344 22.2944 19.3184V24.4016L29.8672 26.5376V8.8176L28.0752 7.9856C28.0448 8.1616 28.0064 8.3344 27.9584 8.5024C27.6105 9.72921 27.0268 10.8765 26.24 11.88L22.2768 16.8288C22.1725 16.9589 22.0392 17.0629 21.8876 17.1325C21.736 17.202 21.5703 17.2352 21.4036 17.2295C21.2369 17.2237 21.0738 17.1792 20.9274 17.0993C20.7809 17.0195 20.6551 16.9066 20.56 16.7696L16.856 11.4048C16.2448 10.5504 15.816 9.7888 15.5744 9.1072C15.4227 8.68178 15.3197 8.24058 15.2672 7.792ZM21.3952 2.7184C20.2336 2.7744 19.04 3.2416 18.472 3.9056C17.7888 4.7056 17.4528 5.4544 17.3856 6.2128C17.3056 7.1264 17.36 7.7712 17.5872 8.4096C17.7552 8.8816 18.0896 9.48 18.6064 10.2016L21.504 14.3968L24.56 10.5808C25.1765 9.79289 25.6336 8.89237 25.9056 7.9296C26.2896 6.5856 25.7104 4.6112 24.6256 3.7632C23.5136 2.8912 22.6736 2.656 21.3968 2.7184H21.3952ZM21.616 3.8336C23.3824 3.8336 24.816 5.2496 24.816 6.9968C24.8137 7.41465 24.7291 7.82795 24.567 8.21308C24.4049 8.59822 24.1685 8.94764 23.8714 9.2414C23.5742 9.53515 23.2221 9.76747 22.8351 9.92509C22.4481 10.0827 22.0338 10.1625 21.616 10.16C19.8496 10.16 18.416 8.744 18.416 6.9968C18.416 5.2496 19.8496 3.8336 21.616 3.8336ZM21.616 5.9424C21.4767 5.94156 21.3386 5.96816 21.2096 6.0207C21.0805 6.07323 20.9631 6.15066 20.864 6.24857C20.7649 6.34648 20.6861 6.46295 20.632 6.59134C20.5779 6.71972 20.5496 6.8575 20.5488 6.9968C20.5488 7.5792 21.0272 8.0512 21.616 8.0512C21.7553 8.05183 21.8934 8.02502 22.0223 7.97229C22.1513 7.91957 22.2686 7.84196 22.3675 7.7439C22.4665 7.64584 22.5451 7.52925 22.599 7.40079C22.6529 7.27233 22.681 7.13451 22.6816 6.9952C22.6795 6.71442 22.5661 6.44592 22.3664 6.24857C22.1666 6.05123 21.8968 5.94112 21.616 5.9424Z" fill="#6B6CF2"/>
</svg>
