<svg width="30" height="26" viewBox="0 0 30 26" fill="none" xmlns="http://www.w3.org/2000/svg">
<path d="M15.0002 25.8267C14.8038 25.8261 14.6131 25.7604 14.458 25.64C9.51576 21.8 6.11132 18.4933 3.7291 15.2311C0.689096 11.0622 -0.00423718 7.21334 1.66687 3.79112C2.85799 1.34668 6.28021 -0.653325 10.2802 0.511119C12.1874 1.062 13.8513 2.24337 15.0002 3.86223C16.1491 2.24337 17.8131 1.062 19.7202 0.511119C23.7113 -0.635547 27.1424 1.34668 28.3335 3.79112C30.0047 7.21334 29.3113 11.0622 26.2713 15.2311C23.8891 18.4933 20.4847 21.8 15.5424 25.64C15.3873 25.7604 15.1966 25.8261 15.0002 25.8267V25.8267ZM8.00465 1.96001C7.05288 1.92297 6.10898 2.14583 5.27429 2.60467C4.4396 3.06352 3.74563 3.74102 3.26687 4.56445C1.8891 7.39112 2.51132 10.5378 5.1691 14.1733C7.9936 17.8165 11.301 21.0582 15.0002 23.8089C18.6988 21.0609 22.0062 17.8223 24.8313 14.1822C27.498 10.5378 28.1113 7.39112 26.7335 4.57334C25.8447 2.79556 23.178 1.38223 20.2091 2.21779C19.2571 2.49912 18.3746 2.97665 17.6183 3.61963C16.8621 4.26262 16.2488 5.05682 15.818 5.95112C15.751 6.11415 15.6371 6.25359 15.4907 6.35173C15.3443 6.44986 15.172 6.50226 14.9958 6.50226C14.8195 6.50226 14.6472 6.44986 14.5008 6.35173C14.3544 6.25359 14.2405 6.11415 14.1735 5.95112C13.746 5.05458 13.1337 4.25852 12.377 3.61514C11.6203 2.97175 10.7361 2.49556 9.78243 2.21779C9.20463 2.04997 8.60632 1.96321 8.00465 1.96001V1.96001Z" fill="#82878D"/>
</svg>
