<svg width="19" height="16" viewBox="0 0 19 16" fill="none" xmlns="http://www.w3.org/2000/svg">
<path d="M17.8125 13.3333C17.8125 13.687 17.6874 14.0261 17.4647 14.2761C17.242 14.5262 16.9399 14.6667 16.625 14.6667H2.375C2.06006 14.6667 1.75801 14.5262 1.53531 14.2761C1.31261 14.0261 1.1875 13.687 1.1875 13.3333V5.33333C1.1875 4.97971 1.31261 4.64057 1.53531 4.39052C1.75801 4.14048 2.06006 4 2.375 4H3.76675C4.71109 3.99942 5.6166 3.57787 6.28425 2.828L7.26988 1.724C7.49194 1.47459 7.79297 1.33411 8.10706 1.33333H10.8906C11.2055 1.33341 11.5075 1.47393 11.7301 1.724L12.7134 2.828C13.0442 3.19962 13.4371 3.4944 13.8695 3.69549C14.3018 3.89659 14.7653 4.00006 15.2332 4H16.625C16.9399 4 17.242 4.14048 17.4647 4.39052C17.6874 4.64057 17.8125 4.97971 17.8125 5.33333V13.3333ZM2.375 2.66667C1.74511 2.66667 1.14102 2.94762 0.695621 3.44772C0.250223 3.94781 0 4.62609 0 5.33333L0 13.3333C0 14.0406 0.250223 14.7189 0.695621 15.219C1.14102 15.719 1.74511 16 2.375 16H16.625C17.2549 16 17.859 15.719 18.3044 15.219C18.7498 14.7189 19 14.0406 19 13.3333V5.33333C19 4.62609 18.7498 3.94781 18.3044 3.44772C17.859 2.94762 17.2549 2.66667 16.625 2.66667H15.2332C14.6034 2.66652 13.9994 2.38547 13.5541 1.88533L12.5709 0.781333C12.1256 0.281202 11.5216 0.000151033 10.8918 0H8.10825C7.47841 0.000151033 6.87442 0.281202 6.42912 0.781333L5.44588 1.88533C5.00058 2.38547 4.39659 2.66652 3.76675 2.66667H2.375Z" fill="white"/>
<path d="M9.57895 11.9666C8.74142 11.9666 7.9382 11.6478 7.34598 11.0805C6.75376 10.5132 6.42105 9.74368 6.42105 8.94135C6.42105 8.13901 6.75376 7.36954 7.34598 6.8022C7.9382 6.23487 8.74142 5.91614 9.57895 5.91614C10.4165 5.91614 11.2197 6.23487 11.8119 6.8022C12.4041 7.36954 12.7368 8.13901 12.7368 8.94135C12.7368 9.74368 12.4041 10.5132 11.8119 11.0805C11.2197 11.6478 10.4165 11.9666 9.57895 11.9666ZM9.57895 13.1766C10.7515 13.1766 11.876 12.7304 12.7051 11.9362C13.5342 11.1419 14 10.0646 14 8.94135C14 7.81808 13.5342 6.74082 12.7051 5.94654C11.876 5.15227 10.7515 4.70605 9.57895 4.70605C8.40641 4.70605 7.2819 5.15227 6.45279 5.94654C5.62368 6.74082 5.15789 7.81808 5.15789 8.94135C5.15789 10.0646 5.62368 11.1419 6.45279 11.9362C7.2819 12.7304 8.40641 13.1766 9.57895 13.1766ZM3.26316 6.52118C3.26316 6.68165 3.19662 6.83554 3.07817 6.94901C2.95973 7.06248 2.79908 7.12622 2.63158 7.12622C2.46407 7.12622 2.30343 7.06248 2.18499 6.94901C2.06654 6.83554 2 6.68165 2 6.52118C2 6.36071 2.06654 6.20682 2.18499 6.09335C2.30343 5.97988 2.46407 5.91614 2.63158 5.91614C2.79908 5.91614 2.95973 5.97988 3.07817 6.09335C3.19662 6.20682 3.26316 6.36071 3.26316 6.52118Z" fill="white"/>
</svg>
