<svg width="20" height="25" viewBox="0 0 20 25" fill="none" xmlns="http://www.w3.org/2000/svg">
<path d="M19.25 23.2948V23.2947V3.92288C19.25 3.09176 18.9048 2.29705 18.2941 1.7129C17.6839 1.12911 16.8585 0.802979 16 0.802979H4C3.14153 0.802979 2.31612 1.12911 1.70586 1.7129C1.09523 2.29705 0.75 3.09176 0.75 3.92288L0.75 23.2947L0.75 23.2948C0.750096 23.4721 0.800498 23.6453 0.894807 23.7958L1.10667 23.6631L0.894808 23.7958C0.989051 23.9463 1.12327 24.068 1.28203 24.1493C1.44074 24.2306 1.61874 24.2689 1.79727 24.2607C1.97173 24.2527 2.14154 24.2006 2.28944 24.109L10 20.1335L17.7106 24.109C17.8585 24.2006 18.0283 24.2527 18.2027 24.2607C18.3813 24.2689 18.5593 24.2306 18.718 24.1493C18.8767 24.068 19.011 23.9463 19.1052 23.7958C19.1995 23.6453 19.2499 23.4721 19.25 23.2948ZM17.25 3.92288V21.5489L10.5383 18.1748C10.3771 18.0752 10.1902 18.0227 10 18.0227C9.80979 18.0227 9.62292 18.0752 9.46172 18.1748L2.75 21.5489V3.92288C2.75 3.61227 2.87888 3.31203 3.11216 3.08886C3.34581 2.86534 3.66499 2.73793 4 2.73793H16C16.335 2.73793 16.6542 2.86534 16.8878 3.08886C17.1211 3.31203 17.25 3.61227 17.25 3.92288Z" fill="#C0C0C0" stroke="#C0C0C0" stroke-width="0.5"/>
</svg>
