<svg width="20" height="25" viewBox="0 0 20 25" fill="none" xmlns="http://www.w3.org/2000/svg">
<path d="M19.25 23.0362V23.0361V3.66432C19.25 2.83321 18.9048 2.0385 18.2941 1.45435C17.6839 0.870563 16.8585 0.544434 16 0.544434H4C3.14154 0.544434 2.31612 0.870563 1.70586 1.45435C1.09523 2.0385 0.75 2.83321 0.75 3.66432L0.75 23.0361L0.75 23.0362C0.750096 23.2135 0.800498 23.3867 0.894807 23.5372L1.10667 23.4045L0.894808 23.5372C0.989052 23.6877 1.12327 23.8094 1.28203 23.8907C1.44074 23.972 1.61874 24.0103 1.79727 24.0021C1.97173 23.9941 2.14154 23.942 2.28944 23.8504L10 19.8749L17.7106 23.8504C17.8585 23.942 18.0283 23.9941 18.2027 24.0021C18.3813 24.0103 18.5593 23.972 18.718 23.8907C18.8767 23.8094 19.0109 23.6877 19.1052 23.5372C19.1995 23.3867 19.2499 23.2135 19.25 23.0362ZM3.11216 2.83031C3.34581 2.60679 3.66499 2.47938 4 2.47938H16C16.335 2.47938 16.6542 2.60679 16.8878 2.83031C17.1211 3.05348 17.25 3.35372 17.25 3.66432V21.2903L10.5383 17.9162C10.3771 17.8166 10.1902 17.7641 10 17.7641C9.80979 17.7641 9.62293 17.8166 9.46174 17.9162L2.75 21.2903V3.66432C2.75 3.35372 2.87888 3.05348 3.11216 2.83031Z" fill="#6B6CF2" stroke="#6B6CF2" stroke-width="0.5"/>
</svg>
