<svg width="104" height="146" viewBox="0 0 104 146" fill="none" xmlns="http://www.w3.org/2000/svg">
<path d="M33.7195 2.07056C33.7195 2.07056 10.3995 9.07055 12.5995 46.0105V125.581H39.1195L33.7195 2.07056Z" fill="#6078BA"/>
<path d="M31.0703 25.9405V140.24H81.8103V43.9405C81.8103 43.9405 85.1503 7.0005 60.9103 2.4605C60.8903 2.4705 31.0703 -2.92949 31.0703 25.9405Z" fill="#6078BA"/>
<path d="M65.0591 99.1405H29.7891V116.601H65.0591V99.1405Z" fill="#B6E1F8"/>
<path d="M103.949 145.401H80.0993L75.8093 128.181C75.8093 128.181 72.3393 102.041 90.2693 101.671C90.2693 101.671 99.5693 108.201 102.109 123.541C102.139 123.541 104.139 135.801 103.949 145.401Z" fill="#B6E1F8"/>
<path d="M21.0996 145.401L24.3196 132.401C24.3196 132.401 30.0196 103.401 12.0996 103.021C12.0996 103.021 -0.900358 113.721 0.0496417 145.391H21.0996" fill="#B6E1F8"/>
<path d="M60.8791 63.8805H39.1191V95.7405H60.8791V63.8805Z" fill="#B6E1F8"/>
<path d="M60.8891 76.8805V63.8805H39.1191V82.6105C46.2991 82.3905 54.8091 81.0905 60.8891 76.8805Z" fill="#83D0F3"/>
<path d="M10.2695 105.9C13.2425 101.365 17.6729 97.9788 22.8295 96.3005L41.2296 89.4805H58.8095L81.2995 96.3005C86.4573 97.9767 90.8884 101.363 93.8595 105.9H10.2695Z" fill="#B6E1F8"/>
<path d="M14.8102 131.79V145.401H85.4502L84.6201 129.591C83.7402 99.1305 87.1401 99.1305 87.1401 99.1305C85.3475 97.8978 83.3785 96.9436 81.3001 96.3005L63.5901 91.3005C63.5901 91.3005 59.7501 107.811 45.1401 107.811C45.1401 107.811 33.8201 101.711 36.8901 91.1405L22.8901 96.3405C18.8692 97.7822 15.2086 100.078 12.1602 103.07C12.1602 103.07 14.6002 104.56 14.8102 131.79Z" fill="#58C3E7"/>
<path d="M63.2596 66.4205C62.5063 68.1894 61.4083 69.7906 60.0296 71.1306C56.4248 74.6276 52.1901 77.41 47.5496 79.3305C41.8596 81.6605 33.2696 81.9605 28.7396 77.3305C25.0796 73.5305 23.0696 67.7705 21.4796 62.8405C18.3796 53.2405 18.4196 42.7605 19.2096 32.7905C19.3896 30.5205 19.6196 28.2405 19.9996 25.9905C23.5396 4.24054 42.1396 4.24054 42.1396 4.24054C56.1396 3.63054 68.9996 10.2406 71.1396 25.0606C71.9696 30.7306 70.8796 36.8105 70.5996 42.4805C70.4821 46.6525 69.7889 50.7883 68.5396 54.7705C67.1896 58.8505 64.9496 62.5005 63.2596 66.4205Z" fill="#B6E1F8"/>
<path d="M65.0703 49.8405C65.0703 49.8405 66.9303 42.1105 72.8803 45.3105C72.8803 45.3105 75.5603 46.6705 73.6303 51.9805C73.6303 51.9805 70.8103 59.6205 65.0703 56.8205V49.8405Z" fill="#B6E1F8"/>
<path d="M17.8091 28.4305C16.8091 -1.39948 45.1291 0.0105185 45.1291 0.0105185C72.9591 1.16052 74.3491 13.7605 74.3491 13.7605C77.7191 29.7605 72.8991 45.3105 72.8991 45.3105C66.9791 44.0205 65.9791 51.9305 65.9791 51.9305C66.5991 39.2505 65.5591 38.4805 65.5591 38.4805C60.3654 38.4503 55.1787 38.0963 50.0291 37.4205L49.6291 28.5805L47.4491 36.9605C38.6641 36.6236 29.9297 35.4686 21.3591 33.5105C21.3591 33.5105 17.8091 33.7605 17.8091 44.5105V28.4305Z" fill="#6078BA"/>
</svg>
