<svg width="15" height="9" viewBox="0 0 15 9" fill="none" xmlns="http://www.w3.org/2000/svg">
<path d="M14.6698 0.344159C14.4584 0.123794 14.1716 0 13.8725 0C13.5735 0 13.2867 0.123794 13.0753 0.344159L7.49319 6.16269L1.91111 0.344159C1.69843 0.130039 1.41357 0.0115592 1.11789 0.0142373C0.822216 0.0169155 0.539376 0.140538 0.330293 0.358478C0.12121 0.576418 0.00261307 0.871238 4.3869e-05 1.17944C-0.00252628 1.48764 0.111139 1.78457 0.316558 2.00626L6.69591 8.65584C6.90739 8.87621 7.19417 9 7.49319 9C7.79222 9 8.079 8.87621 8.29047 8.65584L14.6698 2.00626C14.8812 1.78583 15 1.4869 15 1.17521C15 0.863519 14.8812 0.564591 14.6698 0.344159Z" fill="#C0C0C0"/>
</svg>
