<svg width="14" height="14" viewBox="0 0 14 14" fill="none" xmlns="http://www.w3.org/2000/svg">
<path d="M13.7376 2.8366L11.1815 0.262865C11.0126 0.0945094 10.784 0 10.5457 0C10.3074 0 10.0788 0.0945094 9.90993 0.262865L0.848073 9.32765L0.0207047 12.9047C-0.00783676 13.0355 -0.00685834 13.171 0.0235684 13.3013C0.0539951 13.4316 0.113102 13.5535 0.19657 13.658C0.280038 13.7626 0.38576 13.8471 0.506011 13.9054C0.626263 13.9638 0.758007 13.9945 0.891619 13.9953C0.953876 14.0016 1.01661 14.0016 1.07887 13.9953L4.6888 13.1664L13.7376 4.11038C13.9057 3.94117 14 3.71219 14 3.47349C14 3.2348 13.9057 3.00581 13.7376 2.8366ZM4.25335 12.3812L0.869846 13.0923L1.6406 9.76824L8.42067 3.00237L11.0334 5.61973L4.25335 12.3812ZM11.6169 4.9872L9.00418 2.36984L10.5196 0.860495L13.0888 3.47785L11.6169 4.9872Z" fill="white"/>
</svg>
