<svg width="107" height="150" viewBox="0 0 107 150" fill="none" xmlns="http://www.w3.org/2000/svg">
<path d="M10 111.706C13.1219 106.931 17.7832 103.367 23.21 101.606L42.55 94.4363H61L80.34 101.606C85.7668 103.367 90.4281 106.931 93.55 111.706H10Z" fill="#B6E1F8"/>
<path d="M76.9982 149.336H106.878C106.878 144.236 106.548 136.966 106.548 136.966C104.788 106.406 82.5482 101.606 82.5482 101.606C65.1882 97.3963 74.6582 124.256 74.6582 124.256C74.1282 130.726 75.0882 139.436 76.9982 149.336Z" fill="#58C3E7"/>
<path d="M64.4184 76.3063H39.0684V101.016H64.4184V76.3063Z" fill="#B6E1F8"/>
<path d="M64.4184 87.7863V76.3063H39.0684V81.9963C46.2984 88.0063 54.9984 88.7763 64.4184 87.7863Z" fill="#83D0F3"/>
<path d="M91.3998 149.336C91.8898 136.016 91.7398 132.336 91.6198 127.806C91.3498 117.686 89.1898 109.126 82.5199 101.616L64.4498 95.7263C64.4498 95.7263 68.2498 102.376 51.6498 102.376C51.6498 102.376 40.7098 101.946 39.1098 95.7263L20.7598 101.616C20.7598 101.616 4.99984 105.466 2.33984 121.976L11.5598 138.926L11.2398 149.336H91.3998Z" fill="#58C3E7"/>
<path d="M81.9194 39.4863C81.9194 33.6163 81.6694 27.7563 81.8094 21.8863C81.8894 18.1363 82.2394 19.1063 77.8994 18.6963C71.8994 18.1163 69.8994 29.3063 69.4394 34.1363C68.8594 40.8063 70.2994 47.9863 71.4394 54.4863C71.8394 56.8363 71.7394 61.5463 74.1894 62.6463C76.2994 63.5863 78.4894 61.2663 79.5994 59.5463C82.1294 55.5963 81.6894 49.5463 81.8494 45.0663C81.8894 43.1763 81.9194 41.3463 81.9194 39.4863Z" fill="#6078BA"/>
<path d="M79.3091 72.8663C76.7491 82.8663 72.2391 85.6463 72.2391 85.6463L66.1891 86.8263C62.6991 86.3863 56.6991 84.9663 56.6991 84.9663C42.8791 80.2763 38.8691 78.9663 36.6991 73.7463C36.6091 73.5263 25.7991 36.0163 25.7991 36.0163C24.0291 16.7163 44.2391 12.6963 47.2891 12.1963C50.2891 11.4963 69.549 6.14631 75.289 24.6763C80.5213 40.1751 81.9011 56.7148 79.3091 72.8663Z" fill="#B6E1F8"/>
<path d="M23.7594 18.2963C17.0394 21.5363 16.7594 27.5263 17.1294 34.3463C17.3694 39.6263 18.9994 44.1363 20.8894 49.2663C24.1194 58.0063 24.1194 58.0063 26.9694 63.0363C29.8327 67.3587 33.2596 71.2799 37.1595 74.6963C35.4995 68.1163 34.9994 63.1763 33.5194 58.1763C31.7321 51.3997 32.2277 44.223 34.9294 37.7563C34.9294 37.7563 36.4594 33.6163 42.7494 32.4263L23.7494 18.3163" fill="#566BA5"/>
<path d="M34.7898 56.8464C34.7898 56.8464 31.3798 49.4064 25.9998 53.8464C25.9998 53.8464 23.5598 55.7563 26.5698 60.7363C26.5698 60.7363 30.9398 67.8963 36.1798 63.9263L34.7898 56.8464Z" fill="#B6E1F8"/>
<path d="M34.2586 39.4863C34.2586 39.4863 34.2586 52.8163 36.7286 59.8863L34.1286 60.3963C34.1286 60.3963 32.7586 51.2563 28.0586 51.1563L34.2586 39.4863Z" fill="#566BA5"/>
<path d="M85.2399 10.9463C106.84 32.9463 41.4699 32.7263 41.4699 32.7263C41.4699 32.7263 34.6099 35.8963 23.7599 18.2963C23.7599 18.2963 20.8299 4.53632 51.7599 0.196319C51.7399 0.176319 72.1699 -2.30368 85.2399 10.9463Z" fill="#6078BA"/>
<path d="M28 149.336H0C0 149.336 0.100003 142.706 0.120003 142.236C0.265526 135.696 0.893899 129.174 2 122.726C3.68 113.546 8.14 105.396 18 103.066C22.49 101.996 26.49 104.716 28.92 108.416C28.83 108.416 33.28 113.896 28 149.336Z" fill="#58C3E7"/>
</svg>
