<svg width="104" height="151" viewBox="0 0 104 151" fill="none" xmlns="http://www.w3.org/2000/svg">
<path d="M60.5378 93.4941C55.9378 91.8241 53.0278 87.9741 47.5378 88.4941C37.8178 89.3541 30.9278 100.284 21.5378 92.8741C10.2078 83.8741 13.1878 29.8741 18.0978 17.6741C22.2578 7.30411 29.9278 17.4441 40.8778 13.9541C53.5978 9.90411 64.5678 19.9541 71.1478 30.3641C78.1014 41.5492 81.3748 54.6323 80.5078 67.7741C79.6378 79.5041 77.5178 99.6641 60.5378 93.4941Z" fill="#6078BA"/>
<path d="M103.957 150.564H80.1071L75.8171 133.334C75.8171 133.334 72.3471 107.194 90.2771 106.834C90.2771 106.834 99.5771 113.354 102.117 128.694C102.147 128.694 104.147 140.964 103.957 150.564Z" fill="#58C3E7"/>
<path d="M21.1082 150.564L24.3282 137.564C24.3282 137.564 27.7982 111.424 9.86822 111.064C9.86822 111.064 -0.88176 118.894 0.0582395 150.564H21.1082Z" fill="#58C3E7"/>
<path d="M60.8869 69.0341H39.127V100.894H60.8869V69.0341Z" fill="#B6E1F8"/>
<path d="M60.8969 82.0441V69.0441H39.127V87.7641C46.307 87.5441 54.8169 86.2441 60.8969 82.0441Z" fill="#83D0F3"/>
<path d="M10.2773 111.064C13.243 106.528 17.6662 103.138 22.8174 101.454L41.2173 94.6441H58.8174L81.3073 101.454C86.4489 103.141 90.8617 106.531 93.8174 111.064H10.2773Z" fill="#B6E1F8"/>
<path d="M14.8173 150.564H87.2873L86.8173 136.964L97.4773 120.844C96.8843 116.419 95.0512 112.251 92.1898 108.824C89.3285 105.396 85.5556 102.848 81.3073 101.474L63.5973 96.4741C63.5973 96.4741 64.6573 102.244 50.0373 102.244C50.0373 102.244 38.2972 102.244 36.8972 96.3141L22.8972 101.514C16.1326 103.927 10.4681 108.704 6.94727 114.964L14.8173 136.964V150.564Z" fill="#58C3E7"/>
<path d="M63.2674 71.5741C62.5141 73.343 61.4161 74.9441 60.0374 76.2841C56.4326 79.7811 52.1979 82.5635 47.5574 84.4841C41.8674 86.8241 33.2774 87.1241 28.7474 82.4841C25.0874 78.6841 23.0774 72.9241 21.4874 67.9941C18.3874 58.3941 18.4274 47.9141 19.2174 37.9941C19.3974 35.7141 19.6274 33.4441 20.0074 31.1941C23.5474 9.4541 42.1474 9.50409 42.1474 9.50409C56.1474 8.89409 69.0074 15.5041 71.1474 30.3241C71.9774 35.9941 70.8874 42.0841 70.6074 47.7441C70.4891 51.9193 69.7959 56.0582 68.5474 60.0441C67.1974 63.9641 64.9574 67.6641 63.2674 71.5741Z" fill="#B6E1F8"/>
<path d="M17.7171 50.7141C12.4671 34.4641 16.7171 15.3541 22.9771 9.3741C40.7371 -7.5759 73.5571 -1.1259 83.5871 25.3741C86.687 33.5541 85.2271 64.0841 83.8271 73.4641C81.9471 86.0341 77.3271 94.6441 67.7771 94.6441C68.0371 84.2741 67.2371 72.7941 68.1571 60.1241C69.0771 47.4541 67.3971 47.2441 56.9371 41.3941C52.2685 38.8745 48.3232 35.2011 45.4771 30.7241C41.4771 24.8841 44.4771 22.8341 36.5671 23.1041C36.5671 23.1041 18.1671 22.4741 17.7171 50.7141Z" fill="#6078BA"/>
<path d="M65.0781 54.9641C65.0781 54.9641 66.9381 47.2241 72.8881 50.4241C72.8881 50.4241 75.5681 51.7841 73.6381 57.0941C73.6381 57.0941 70.8181 64.7341 65.0781 61.9441V54.9641Z" fill="#B6E1F8"/>
</svg>
