<svg width="107" height="149" viewBox="0 0 107 149" fill="none" xmlns="http://www.w3.org/2000/svg">
<path d="M13.3398 22.51C13.3398 22.51 15.8098 20.23 20.5398 24.35L22.7299 20.94C22.7299 20.94 17.4298 16.74 13.3398 22.51Z" fill="#6078BA"/>
<path d="M21.9996 12.54C21.9996 12.54 19.0696 16.18 23.2896 20.33L20.4396 23.2C20.4396 23.2 13.8996 15.2 21.9996 12.54Z" fill="#6078BA"/>
<path d="M10 110.68C13.1272 105.91 17.7866 102.347 23.21 100.58L42.55 93.41H61L80.34 100.58C85.7523 102.353 90.4004 105.915 93.52 110.68H10Z" fill="#B6E1F8"/>
<path d="M76.9982 148.28H106.878C106.878 143.17 106.548 135.9 106.548 135.9C104.788 105.35 82.5482 100.54 82.5482 100.54C65.1882 96.3401 74.6582 123.19 74.6582 123.19C74.1282 129.68 75.0882 138.37 76.9982 148.28Z" fill="#58C3E7"/>
<path d="M64.4184 75.24H39.0684V99.95H64.4184V75.24Z" fill="#B6E1F8"/>
<path d="M64.4184 86.73V75.24H39.0684V80.93C46.2984 86.95 54.9984 87.68 64.4184 86.73Z" fill="#83D0F3"/>
<path d="M91.3998 148.28C91.8898 134.95 91.7398 131.28 91.6198 126.75C91.3498 116.62 89.1898 108.07 82.5199 100.55L64.4099 94.6801C64.4099 94.6801 68.2098 101.33 51.6098 101.33C51.6098 101.33 40.6698 100.9 39.0698 94.6801L20.7198 100.57C20.7198 100.57 4.99984 104.4 2.33984 120.91L11.5598 137.91L11.2398 148.32L91.3998 148.28Z" fill="#6078BA"/>
<path d="M84.1187 44.35C84.8387 38.67 83.6287 33.22 83.6787 27.62C83.6787 23.86 82.9887 18.19 78.3187 17.71C71.8387 17.05 69.8387 28.24 69.4587 33.08C68.9287 39.76 70.5887 46.98 71.8787 53.52C72.3387 55.88 72.2887 60.6 74.9487 61.74C77.2287 62.74 79.5487 60.42 80.7087 58.74C83.5087 54.59 83.5187 49.11 84.1187 44.35Z" fill="#6078BA"/>
<path d="M79.3094 71.8C76.7494 81.8 72.2394 84.59 72.2394 84.59L66.1894 85.77C62.6994 85.33 56.6994 83.91 56.6994 83.91C42.8794 79.21 38.8694 77.91 36.6994 72.69C36.6094 72.46 25.7994 34.96 25.7994 34.96C24.0594 15.68 44.2694 11.68 47.3194 11.13C50.3194 10.43 69.5794 5.13002 75.3194 23.62C80.542 39.1178 81.9114 55.6543 79.3094 71.8Z" fill="#B6E1F8"/>
<path d="M85.6688 4.94C86.7588 10.94 85.7388 19.23 81.0888 23.06C76.0888 27.21 71.7188 26.06 65.6488 27.43C59.3388 28.83 52.8888 29.43 46.5388 30.61C42.0988 31.47 36.9788 31.96 34.9288 36.67C32.2271 43.1366 31.7315 50.3134 33.5188 57.09C35.0288 62.09 35.5188 67.09 37.1588 73.64C33.2707 70.2167 29.8542 66.2924 26.9988 61.97C24.1488 56.97 24.1488 56.97 20.9188 48.2C18.9988 43.08 17.3688 38.57 17.1288 33.28C16.8088 26.47 20.1288 23.49 23.7588 17.28C26.8467 11.5959 32.0428 7.35144 38.2288 5.46C38.2288 5.46 69.9588 7.24 69.3588 0C69.3588 0 76.9788 1.94 75.5288 7C75.5288 7 83.5288 5.54 81.8088 0C82.7733 0.492366 83.6186 1.18962 84.2854 2.04295C84.9521 2.89627 85.4243 3.88503 85.6688 4.94Z" fill="#6078BA"/>
<path d="M34.7898 55.79C34.7898 55.79 31.3798 48.34 25.9998 52.79C25.9998 52.79 23.5598 54.7 26.5698 59.68C26.5698 59.68 30.9398 66.84 36.1798 62.88L34.7898 55.79Z" fill="#B6E1F8"/>
<path d="M34.2586 38.4301C34.2586 38.4301 34.2586 51.7501 36.7286 58.8201L34.1286 59.3401C34.1286 59.3401 32.7586 50.2001 28.0586 50.0901L34.2586 38.4301Z" fill="#6078BA"/>
<path d="M28 148.28H0C0 148.28 0.100003 141.65 0.120003 141.18C0.266453 134.643 0.894821 128.125 2 121.68C3.68 112.5 8.14 104.35 18 102.02C22.49 100.95 26.49 103.67 28.92 107.37C28.83 107.35 33.28 112.83 28 148.28Z" fill="#58C3E7"/>
</svg>
